<svg focusable="false" aria-hidden="true" viewBox="0 0 24 24" data-testid="LocalShippingIcon" xmlns="http://www.w3.org/2000/svg">
    <path d="m20 8h-3v-4h-14c-1.1 0-2 .9-2 2v11h2c0 1.66 1.34 3 3 3s3-1.34 3-3h6c0 1.66 1.34 3 3 3s3-1.34 3-3h2v-5l-3-4zm-14 10.5c-.83 0-1.5-.67-1.5-1.5s.67-1.5 1.5-1.5 1.5.67 1.5 1.5-.67 1.5-1.5 1.5zm13.5-9 1.96 2.5h-4.46v-2.5h2.5zm-1.5 9c-.83 0-1.5-.67-1.5-1.5s.67-1.5 1.5-1.5 1.5.67 1.5 1.5-.67 1.5-1.5 1.5zm-14.7-9 1.53 0 0 1.66-3.03 0 1.51-1.66zm2.46-2.74 1.66-1.84 0 4.57.94 0 0 1.66-.94 0 0 1.93-1.66 0 0-6.33zm6.58 6.48c-.37-.06-.72-.19-1.04-.37-.32-.19-.61-.42-.86-.7-.28-.32-.49-.67-.61-1.05-.12-.39-.18-.87-.18-1.44l0-4.51 1.66 0 0 4.36c0 .31.01.57.05.78.03.21.08.39.16.55.08.15.19.28.32.38.14.1.31.19.52.27l0 1.74zm.91-1.74c.21-.07.37-.16.51-.26.14-.1.25-.23.33-.39.08-.14.14-.31.17-.5.03-.2.05-.47.05-.83l0-4.36 1.65 0 0 4.51c0 .58-.06 1.06-.18 1.44-.12.38-.33.73-.61 1.05-.25.29-.54.52-.87.7-.33.18-.68.3-1.04.37l0-1.74z" style="fill-rule: evenodd;fill: currentcolor;"/>
</svg>
