<svg width="64" height="62" viewBox="0 0 64 62" fill="none" xmlns="http://www.w3.org/2000/svg">
<g opacity="0.5">
 <path d="m6.78,28.46l6.39,0l0,6.72l-12.68,0l6.29,-6.72zm10.27,-11.09l6.92,-7.44l0,18.53l3.93,0l0,6.72l-3.93,0l0,7.82l-6.92,0l0,-25.63zm27.48,26.25c-1.56,-0.25 -3.02,-0.75 -4.36,-1.48c-1.35,-0.77 -2.55,-1.72 -3.6,-2.84c-1.19,-1.31 -2.04,-2.73 -2.55,-4.27c-0.51,-1.57 -0.77,-3.52 -0.77,-5.85l0,-18.29l6.92,0l0,17.66c0,1.25 0.06,2.31 0.19,3.17c0.13,0.86 0.35,1.6 0.67,2.21c0.35,0.61 0.8,1.12 1.34,1.53c0.58,0.42 1.3,0.79 2.16,1.11l0,7.05zm3.8,-7.05c0.86,-0.29 1.56,-0.64 2.11,-1.06c0.57,-0.41 1.04,-0.94 1.39,-1.58c0.35,-0.58 0.59,-1.25 0.72,-2.02c0.13,-0.8 0.19,-1.92 0.19,-3.36l0,-17.66l6.91,0l0,18.29c0,2.33 -0.25,4.28 -0.76,5.85c-0.52,1.54 -1.36,2.96 -2.55,4.27c-1.05,1.16 -2.27,2.1 -3.65,2.84c-1.37,0.73 -2.83,1.23 -4.36,1.48l0,-7.05z" fill="#BE0101" id="svg_2"/>
 <path d="m4.14,55.25l2.76,0l0,1.34l-4.44,0l0,-8.38l1.68,0l0,7.04zm7.72,1.42c-0.78,0 -1.5,-0.18 -2.16,-0.55c-0.66,-0.37 -1.18,-0.88 -1.56,-1.53c-0.38,-0.65 -0.58,-1.39 -0.58,-2.22c0,-0.81 0.2,-1.54 0.58,-2.19c0.38,-0.66 0.9,-1.17 1.56,-1.54c0.66,-0.37 1.38,-0.55 2.16,-0.55c0.79,0 1.51,0.18 2.16,0.55c0.66,0.37 1.17,0.88 1.55,1.54c0.38,0.65 0.57,1.38 0.57,2.19c0,0.83 -0.19,1.57 -0.57,2.22c-0.38,0.65 -0.89,1.16 -1.55,1.53c-0.66,0.37 -1.38,0.55 -2.16,0.55zm0,-1.5c0.5,0 0.95,-0.11 1.33,-0.34c0.39,-0.23 0.69,-0.56 0.9,-0.98c0.22,-0.42 0.33,-0.92 0.33,-1.48c0,-0.56 -0.11,-1.04 -0.33,-1.46c-0.21,-0.42 -0.51,-0.75 -0.9,-0.97c-0.38,-0.23 -0.83,-0.34 -1.33,-0.34c-0.5,0 -0.95,0.11 -1.34,0.34c-0.39,0.22 -0.69,0.55 -0.9,0.97c-0.22,0.42 -0.33,0.9 -0.33,1.46c0,0.56 0.11,1.06 0.33,1.48c0.21,0.42 0.51,0.75 0.9,0.98c0.39,0.23 0.84,0.34 1.34,0.34zm11.37,-4.44c-0.2,-0.35 -0.46,-0.62 -0.8,-0.8c-0.33,-0.19 -0.72,-0.28 -1.17,-0.28c-0.5,0 -0.94,0.11 -1.32,0.34c-0.39,0.22 -0.69,0.54 -0.9,0.96c-0.22,0.41 -0.33,0.89 -0.33,1.44c0,0.56 0.11,1.04 0.33,1.46c0.22,0.42 0.53,0.74 0.92,0.96c0.39,0.22 0.85,0.34 1.37,0.34c0.64,0 1.16,-0.17 1.57,-0.51c0.41,-0.34 0.68,-0.82 0.81,-1.43l-2.88,0l0,-1.28l4.53,0l0,1.46c-0.11,0.59 -0.35,1.13 -0.72,1.62c-0.37,0.5 -0.84,0.9 -1.43,1.2c-0.57,0.3 -1.22,0.45 -1.94,0.45c-0.81,0 -1.54,-0.18 -2.2,-0.54c-0.64,-0.37 -1.16,-0.88 -1.53,-1.53c-0.37,-0.64 -0.55,-1.38 -0.55,-2.2c0,-0.83 0.18,-1.56 0.55,-2.21c0.37,-0.66 0.89,-1.17 1.53,-1.53c0.66,-0.36 1.39,-0.55 2.19,-0.55c0.94,0 1.76,0.23 2.46,0.7c0.69,0.45 1.17,1.1 1.44,1.93l-1.93,0zm5.05,-2.52l0,8.38l-1.68,0l0,-8.38l1.68,0zm4.56,8.46c-0.59,0 -1.12,-0.1 -1.59,-0.3c-0.46,-0.2 -0.83,-0.49 -1.1,-0.86c-0.27,-0.38 -0.41,-0.82 -0.42,-1.34l1.8,0c0.02,0.35 0.14,0.62 0.36,0.82c0.22,0.2 0.53,0.3 0.91,0.3c0.39,0 0.7,-0.09 0.92,-0.28c0.23,-0.19 0.34,-0.44 0.34,-0.74c0,-0.25 -0.08,-0.45 -0.23,-0.61c-0.15,-0.16 -0.34,-0.29 -0.57,-0.37c-0.23,-0.1 -0.54,-0.2 -0.94,-0.32c-0.54,-0.16 -0.99,-0.31 -1.33,-0.46c-0.34,-0.16 -0.63,-0.4 -0.88,-0.71c-0.24,-0.32 -0.36,-0.75 -0.36,-1.27c0,-0.5 0.13,-0.93 0.37,-1.3c0.25,-0.37 0.6,-0.65 1.05,-0.84c0.45,-0.2 0.96,-0.3 1.53,-0.3c0.87,0 1.57,0.21 2.1,0.64c0.55,0.41 0.85,1 0.9,1.75l-1.84,0c-0.02,-0.29 -0.14,-0.53 -0.38,-0.71c-0.22,-0.19 -0.52,-0.29 -0.9,-0.29c-0.32,0 -0.59,0.09 -0.79,0.25c-0.19,0.17 -0.29,0.42 -0.29,0.74c0,0.22 0.08,0.41 0.22,0.56c0.15,0.14 0.34,0.26 0.55,0.36c0.23,0.09 0.54,0.19 0.94,0.31c0.54,0.16 0.99,0.32 1.33,0.48c0.34,0.16 0.64,0.4 0.89,0.72c0.25,0.32 0.37,0.74 0.37,1.26c0,0.45 -0.12,0.87 -0.35,1.25c-0.23,0.38 -0.57,0.69 -1.02,0.92c-0.45,0.23 -0.98,0.34 -1.59,0.34zm10.12,-8.46l0,1.36l-2.24,0l0,7.02l-1.68,0l0,-7.02l-2.23,0l0,-1.36l6.15,0zm2.9,0l0,8.38l-1.68,0l0,-8.38l1.68,0zm1.25,4.18c0,-0.83 0.19,-1.56 0.56,-2.21c0.37,-0.66 0.88,-1.17 1.52,-1.53c0.65,-0.36 1.37,-0.55 2.17,-0.55c0.94,0 1.76,0.24 2.46,0.72c0.71,0.48 1.2,1.15 1.48,1.99l-1.93,0c-0.2,-0.4 -0.47,-0.7 -0.82,-0.9c-0.34,-0.2 -0.74,-0.3 -1.2,-0.3c-0.49,0 -0.92,0.12 -1.31,0.35c-0.37,0.23 -0.67,0.55 -0.89,0.96c-0.2,0.42 -0.31,0.91 -0.31,1.47c0,0.55 0.11,1.04 0.31,1.46c0.22,0.42 0.52,0.74 0.89,0.97c0.39,0.23 0.82,0.34 1.31,0.34c0.46,0 0.86,-0.1 1.2,-0.3c0.35,-0.21 0.62,-0.51 0.82,-0.91l1.93,0c-0.28,0.85 -0.77,1.52 -1.48,2c-0.69,0.47 -1.51,0.71 -2.46,0.71c-0.8,0 -1.52,-0.18 -2.17,-0.54c-0.64,-0.37 -1.15,-0.88 -1.52,-1.53c-0.37,-0.64 -0.56,-1.38 -0.56,-2.2zm12.52,4.28c-0.59,0 -1.12,-0.1 -1.59,-0.3c-0.46,-0.2 -0.83,-0.49 -1.1,-0.86c-0.27,-0.38 -0.41,-0.82 -0.42,-1.34l1.8,0c0.02,0.35 0.14,0.62 0.36,0.82c0.22,0.2 0.53,0.3 0.91,0.3c0.39,0 0.7,-0.09 0.92,-0.28c0.23,-0.19 0.34,-0.44 0.34,-0.74c0,-0.25 -0.08,-0.45 -0.23,-0.61c-0.15,-0.16 -0.34,-0.29 -0.57,-0.37c-0.23,-0.1 -0.54,-0.2 -0.94,-0.32c-0.54,-0.16 -0.99,-0.31 -1.33,-0.46c-0.34,-0.16 -0.63,-0.4 -0.88,-0.71c-0.24,-0.32 -0.36,-0.75 -0.36,-1.27c0,-0.5 0.13,-0.93 0.37,-1.3c0.25,-0.37 0.6,-0.65 1.05,-0.84c0.45,-0.2 0.96,-0.3 1.53,-0.3c0.87,0 1.57,0.21 2.1,0.64c0.55,0.41 0.85,1 0.9,1.75l-1.84,0c-0.02,-0.29 -0.14,-0.53 -0.38,-0.71c-0.22,-0.19 -0.52,-0.29 -0.9,-0.29c-0.32,0 -0.59,0.09 -0.79,0.25c-0.19,0.17 -0.29,0.42 -0.29,0.74c0,0.22 0.08,0.41 0.22,0.56c0.15,0.14 0.34,0.26 0.55,0.36c0.23,0.09 0.54,0.19 0.94,0.31c0.54,0.16 0.99,0.32 1.33,0.48c0.34,0.16 0.64,0.4 0.89,0.72c0.25,0.32 0.37,0.74 0.37,1.26c0,0.45 -0.12,0.87 -0.35,1.25c-0.23,0.38 -0.57,0.69 -1.02,0.92c-0.45,0.23 -0.98,0.34 -1.59,0.34z" fill="#BE0101" id="svg_3"/>
</g>
</svg>
