<svg width="64" height="62" viewBox="0 0 64 62" fill="none" xmlns="http://www.w3.org/2000/svg">
    <g opacity="0.1">
        <path d="M6.78263 28.456H13.1666V35.176H0.494626L6.78263 28.456ZM17.0546 17.368L23.9666 9.928V28.456H27.9026V35.176H23.9666V43H17.0546V17.368ZM44.5331 43.624C42.9651 43.368 41.5091 42.872 40.1651 42.136C38.8211 41.368 37.6211 40.424 36.5651 39.304C35.3811 37.992 34.5331 36.568 34.0211 35.032C33.5091 33.464 33.2531 31.512 33.2531 29.176V10.888H40.1651V28.552C40.1651 29.8 40.2291 30.856 40.3571 31.72C40.4851 32.584 40.7091 33.32 41.0291 33.928C41.3811 34.536 41.8291 35.048 42.3731 35.464C42.9491 35.88 43.6691 36.248 44.5331 36.568V43.624ZM48.3251 36.568C49.1891 36.28 49.8931 35.928 50.4371 35.512C51.0131 35.096 51.4771 34.568 51.8291 33.928C52.1811 33.352 52.4211 32.68 52.5491 31.912C52.6771 31.112 52.7411 29.992 52.7411 28.552V10.888H59.6531V29.176C59.6531 31.512 59.3971 33.464 58.8851 35.032C58.3731 36.568 57.5251 37.992 56.3411 39.304C55.2851 40.456 54.0691 41.4 52.6931 42.136C51.3171 42.872 49.8611 43.368 48.3251 43.624V36.568Z" fill="#0B0B0B"/>
        <path d="M4.14362 55.2547H6.90362V56.5867H2.46362V48.2107H4.14362V55.2547ZM11.8594 56.6707C11.0754 56.6707 10.3554 56.4867 9.69944 56.1187C9.04344 55.7507 8.52344 55.2427 8.13944 54.5947C7.75544 53.9387 7.56344 53.1987 7.56344 52.3747C7.56344 51.5587 7.75544 50.8267 8.13944 50.1787C8.52344 49.5227 9.04344 49.0107 9.69944 48.6427C10.3554 48.2747 11.0754 48.0907 11.8594 48.0907C12.6514 48.0907 13.3714 48.2747 14.0194 48.6427C14.6754 49.0107 15.1914 49.5227 15.5674 50.1787C15.9514 50.8267 16.1434 51.5587 16.1434 52.3747C16.1434 53.1987 15.9514 53.9387 15.5674 54.5947C15.1914 55.2427 14.6754 55.7507 14.0194 56.1187C13.3634 56.4867 12.6434 56.6707 11.8594 56.6707ZM11.8594 55.1707C12.3634 55.1707 12.8074 55.0587 13.1914 54.8347C13.5754 54.6027 13.8754 54.2747 14.0914 53.8507C14.3074 53.4267 14.4154 52.9347 14.4154 52.3747C14.4154 51.8147 14.3074 51.3267 14.0914 50.9107C13.8754 50.4867 13.5754 50.1627 13.1914 49.9387C12.8074 49.7147 12.3634 49.6027 11.8594 49.6027C11.3554 49.6027 10.9074 49.7147 10.5154 49.9387C10.1314 50.1627 9.83144 50.4867 9.61544 50.9107C9.39944 51.3267 9.29144 51.8147 9.29144 52.3747C9.29144 52.9347 9.39944 53.4267 9.61544 53.8507C9.83144 54.2747 10.1314 54.6027 10.5154 54.8347C10.9074 55.0587 11.3554 55.1707 11.8594 55.1707ZM23.2253 50.7307C23.0333 50.3787 22.7693 50.1107 22.4333 49.9267C22.0973 49.7427 21.7053 49.6507 21.2573 49.6507C20.7613 49.6507 20.3213 49.7627 19.9373 49.9867C19.5533 50.2107 19.2533 50.5307 19.0373 50.9467C18.8213 51.3627 18.7133 51.8427 18.7133 52.3867C18.7133 52.9467 18.8213 53.4347 19.0373 53.8507C19.2613 54.2667 19.5693 54.5867 19.9613 54.8107C20.3533 55.0347 20.8093 55.1467 21.3293 55.1467C21.9693 55.1467 22.4933 54.9787 22.9013 54.6427C23.3093 54.2987 23.5773 53.8227 23.7053 53.2147H20.8253V51.9307H25.3613V53.3947C25.2493 53.9787 25.0093 54.5187 24.6413 55.0147C24.2733 55.5107 23.7973 55.9107 23.2133 56.2147C22.6373 56.5107 21.9893 56.6587 21.2693 56.6587C20.4613 56.6587 19.7293 56.4787 19.0733 56.1187C18.4253 55.7507 17.9133 55.2427 17.5373 54.5947C17.1693 53.9467 16.9853 53.2107 16.9853 52.3867C16.9853 51.5627 17.1693 50.8267 17.5373 50.1787C17.9133 49.5227 18.4253 49.0147 19.0733 48.6547C19.7293 48.2867 20.4573 48.1027 21.2573 48.1027C22.2013 48.1027 23.0213 48.3347 23.7173 48.7987C24.4133 49.2547 24.8933 49.8987 25.1573 50.7307H23.2253ZM28.2842 48.2107V56.5867H26.6042V48.2107H28.2842ZM32.8361 56.6707C32.2521 56.6707 31.7241 56.5707 31.2521 56.3707C30.7881 56.1707 30.4201 55.8827 30.1481 55.5067C29.8761 55.1307 29.7361 54.6867 29.7281 54.1747H31.5281C31.5521 54.5187 31.6721 54.7907 31.8881 54.9907C32.1121 55.1907 32.4161 55.2907 32.8001 55.2907C33.1921 55.2907 33.5001 55.1987 33.7241 55.0147C33.9481 54.8227 34.0601 54.5747 34.0601 54.2707C34.0601 54.0227 33.9841 53.8187 33.8321 53.6587C33.6801 53.4987 33.4881 53.3747 33.2561 53.2867C33.0321 53.1907 32.7201 53.0867 32.3201 52.9747C31.7761 52.8147 31.3321 52.6587 30.9881 52.5067C30.6521 52.3467 30.3601 52.1107 30.1121 51.7987C29.8721 51.4787 29.7521 51.0547 29.7521 50.5267C29.7521 50.0307 29.8761 49.5987 30.1241 49.2307C30.3721 48.8627 30.7201 48.5827 31.1681 48.3907C31.6161 48.1907 32.1281 48.0907 32.7041 48.0907C33.5681 48.0907 34.2681 48.3027 34.8041 48.7267C35.3481 49.1427 35.6481 49.7267 35.7041 50.4787H33.8561C33.8401 50.1907 33.7161 49.9547 33.4841 49.7707C33.2601 49.5787 32.9601 49.4827 32.5841 49.4827C32.2561 49.4827 31.9921 49.5667 31.7921 49.7347C31.6001 49.9027 31.5041 50.1467 31.5041 50.4667C31.5041 50.6907 31.5761 50.8787 31.7201 51.0307C31.8721 51.1747 32.0561 51.2947 32.2721 51.3907C32.4961 51.4787 32.8081 51.5827 33.2081 51.7027C33.7521 51.8627 34.1961 52.0227 34.5401 52.1827C34.8841 52.3427 35.1801 52.5827 35.4281 52.9027C35.6761 53.2227 35.8001 53.6427 35.8001 54.1627C35.8001 54.6107 35.6841 55.0267 35.4521 55.4107C35.2201 55.7947 34.8801 56.1027 34.4321 56.3347C33.9841 56.5587 33.4521 56.6707 32.8361 56.6707ZM42.9566 48.2107V49.5667H40.7246V56.5867H39.0446V49.5667H36.8126V48.2107H42.9566ZM45.8624 48.2107V56.5867H44.1824V48.2107H45.8624ZM47.1142 52.3867C47.1142 51.5627 47.2982 50.8267 47.6662 50.1787C48.0422 49.5227 48.5502 49.0147 49.1902 48.6547C49.8382 48.2867 50.5622 48.1027 51.3622 48.1027C52.2982 48.1027 53.1182 48.3427 53.8222 48.8227C54.5262 49.3027 55.0182 49.9667 55.2982 50.8147H53.3662C53.1742 50.4147 52.9022 50.1147 52.5502 49.9147C52.2062 49.7147 51.8062 49.6147 51.3502 49.6147C50.8622 49.6147 50.4262 49.7307 50.0422 49.9627C49.6662 50.1867 49.3702 50.5067 49.1542 50.9227C48.9462 51.3387 48.8422 51.8267 48.8422 52.3867C48.8422 52.9387 48.9462 53.4267 49.1542 53.8507C49.3702 54.2667 49.6662 54.5907 50.0422 54.8227C50.4262 55.0467 50.8622 55.1587 51.3502 55.1587C51.8062 55.1587 52.2062 55.0587 52.5502 54.8587C52.9022 54.6507 53.1742 54.3467 53.3662 53.9467H55.2982C55.0182 54.8027 54.5262 55.4707 53.8222 55.9507C53.1262 56.4227 52.3062 56.6587 51.3622 56.6587C50.5622 56.6587 49.8382 56.4787 49.1902 56.1187C48.5502 55.7507 48.0422 55.2427 47.6662 54.5947C47.2982 53.9467 47.1142 53.2107 47.1142 52.3867ZM59.6252 56.6707C59.0412 56.6707 58.5132 56.5707 58.0412 56.3707C57.5772 56.1707 57.2092 55.8827 56.9372 55.5067C56.6652 55.1307 56.5252 54.6867 56.5172 54.1747H58.3172C58.3412 54.5187 58.4612 54.7907 58.6772 54.9907C58.9012 55.1907 59.2052 55.2907 59.5892 55.2907C59.9812 55.2907 60.2892 55.1987 60.5132 55.0147C60.7372 54.8227 60.8492 54.5747 60.8492 54.2707C60.8492 54.0227 60.7732 53.8187 60.6212 53.6587C60.4692 53.4987 60.2772 53.3747 60.0452 53.2867C59.8212 53.1907 59.5092 53.0867 59.1092 52.9747C58.5652 52.8147 58.1212 52.6587 57.7772 52.5067C57.4412 52.3467 57.1492 52.1107 56.9012 51.7987C56.6612 51.4787 56.5412 51.0547 56.5412 50.5267C56.5412 50.0307 56.6652 49.5987 56.9132 49.2307C57.1612 48.8627 57.5092 48.5827 57.9572 48.3907C58.4052 48.1907 58.9172 48.0907 59.4932 48.0907C60.3572 48.0907 61.0572 48.3027 61.5932 48.7267C62.1372 49.1427 62.4372 49.7267 62.4932 50.4787H60.6452C60.6292 50.1907 60.5052 49.9547 60.2732 49.7707C60.0492 49.5787 59.7492 49.4827 59.3732 49.4827C59.0452 49.4827 58.7812 49.5667 58.5812 49.7347C58.3892 49.9027 58.2932 50.1467 58.2932 50.4667C58.2932 50.6907 58.3652 50.8787 58.5092 51.0307C58.6612 51.1747 58.8452 51.2947 59.0612 51.3907C59.2852 51.4787 59.5972 51.5827 59.9972 51.7027C60.5412 51.8627 60.9852 52.0227 61.3292 52.1827C61.6732 52.3427 61.9692 52.5827 62.2172 52.9027C62.4652 53.2227 62.5892 53.6427 62.5892 54.1627C62.5892 54.6107 62.4732 55.0267 62.2412 55.4107C62.0092 55.7947 61.6692 56.1027 61.2212 56.3347C60.7732 56.5587 60.2412 56.6707 59.6252 56.6707Z" fill="#BE0101"/>
    </g>
</svg>
